<svg xmlns="http://www.w3.org/2000/svg" viewBox="0 0 900 386" width="900" height="386" role="img" aria-label="GitHub activity, last 30 days">
<rect x="1" y="1" width="898" height="384" rx="12" fill="#F3F0E9" stroke="#DCD6CA" stroke-width="1.5"/>
<text x="36" y="40" font-family="Georgia, 'Times New Roman', serif" font-size="17" fill="#476556">Last 30 days</text>
<text x="864" y="40" text-anchor="end" font-family="ui-monospace, SFMono-Regular, Menlo, Consolas, monospace" font-size="11.5" fill="#77736A">updated 30 Sep 2026</text>
<text x="36" y="92" font-family="Georgia, 'Times New Roman', serif" font-size="40" fill="#1C1F1D">0</text><text x="36" y="114" font-family="ui-monospace, SFMono-Regular, Menlo, Consolas, monospace" font-size="12" fill="#77736A">commits</text><text x="248" y="92" font-family="Georgia, 'Times New Roman', serif" font-size="40" fill="#1C1F1D">3</text><text x="248" y="114" font-family="ui-monospace, SFMono-Regular, Menlo, Consolas, monospace" font-size="12" fill="#77736A">repos touched</text><text x="460" y="92" font-family="Georgia, 'Times New Roman', serif" font-size="40" fill="#1C1F1D">0</text><text x="460" y="114" font-family="ui-monospace, SFMono-Regular, Menlo, Consolas, monospace" font-size="12" fill="#77736A">PRs opened</text><text x="672" y="92" font-family="Georgia, 'Times New Roman', serif" font-size="40" fill="#1C1F1D">13</text><text x="672" y="114" font-family="ui-monospace, SFMono-Regular, Menlo, Consolas, monospace" font-size="12" fill="#77736A">public repos</text><rect x="36.0" y="140" width="22" height="22" rx="3" fill="#E6E1D7" opacity="1.00"><title>2026-09-01: 0 events</title></rect><rect x="63.6" y="140" width="22" height="22" rx="3" fill="#E6E1D7" opacity="1.00"><title>2026-09-02: 0 events</title></rect><rect x="91.2" y="140" width="22" height="22" rx="3" fill="#E6E1D7" opacity="1.00"><title>2026-09-03: 0 events</title></rect><rect x="118.8" y="140" width="22" height="22" rx="3" fill="#E6E1D7" opacity="1.00"><title>2026-09-04: 0 events</title></rect><rect x="146.4" y="140" width="22" height="22" rx="3" fill="#E6E1D7" opacity="1.00"><title>2026-09-05: 0 events</title></rect><rect x="174.0" y="140" width="22" height="22" rx="3" fill="#E6E1D7" opacity="1.00"><title>2026-09-06: 0 events</title></rect><rect x="201.6" y="140" width="22" height="22" rx="3" fill="#E6E1D7" opacity="1.00"><title>2026-09-07: 0 events</title></rect><rect x="229.2" y="140" width="22" height="22" rx="3" fill="#E6E1D7" opacity="1.00"><title>2026-09-08: 0 events</title></rect><rect x="256.8" y="140" width="22" height="22" rx="3" fill="#E6E1D7" opacity="1.00"><title>2026-09-09: 0 events</title></rect><rect x="284.4" y="140" width="22" height="22" rx="3" fill="#E6E1D7" opacity="1.00"><title>2026-09-10: 0 events</title></rect><rect x="312.0" y="140" width="22" height="22" rx="3" fill="#E6E1D7" opacity="1.00"><title>2026-09-11: 0 events</title></rect><rect x="339.6" y="140" width="22" height="22" rx="3" fill="#E6E1D7" opacity="1.00"><title>2026-09-12: 0 events</title></rect><rect x="367.2" y="140" width="22" height="22" rx="3" fill="#E6E1D7" opacity="1.00"><title>2026-09-13: 0 events</title></rect><rect x="394.8" y="140" width="22" height="22" rx="3" fill="#E6E1D7" opacity="1.00"><title>2026-09-14: 0 events</title></rect><rect x="422.4" y="140" width="22" height="22" rx="3" fill="#E6E1D7" opacity="1.00"><title>2026-09-15: 0 events</title></rect><rect x="450.0" y="140" width="22" height="22" rx="3" fill="#E6E1D7" opacity="1.00"><title>2026-09-16: 0 events</title></rect><rect x="477.6" y="140" width="22" height="22" rx="3" fill="#E6E1D7" opacity="1.00"><title>2026-09-17: 0 events</title></rect><rect x="505.2" y="140" width="22" height="22" rx="3" fill="#E6E1D7" opacity="1.00"><title>2026-09-18: 0 events</title></rect><rect x="532.8" y="140" width="22" height="22" rx="3" fill="#E6E1D7" opacity="1.00"><title>2026-09-19: 0 events</title></rect><rect x="560.4" y="140" width="22" height="22" rx="3" fill="#E6E1D7" opacity="1.00"><title>2026-09-20: 0 events</title></rect><rect x="588.0" y="140" width="22" height="22" rx="3" fill="#E6E1D7" opacity="1.00"><title>2026-09-21: 0 events</title></rect><rect x="615.6" y="140" width="22" height="22" rx="3" fill="#E6E1D7" opacity="1.00"><title>2026-09-22: 0 events</title></rect><rect x="643.2" y="140" width="22" height="22" rx="3" fill="#E6E1D7" opacity="1.00"><title>2026-09-23: 0 events</title></rect><rect x="670.8" y="140" width="22" height="22" rx="3" fill="#E6E1D7" opacity="1.00"><title>2026-09-24: 0 events</title></rect><rect x="698.4" y="140" width="22" height="22" rx="3" fill="#E6E1D7" opacity="1.00"><title>2026-09-25: 0 events</title></rect><rect x="726.0" y="140" width="22" height="22" rx="3" fill="#E6E1D7" opacity="1.00"><title>2026-09-26: 0 events</title></rect><rect x="753.6" y="140" width="22" height="22" rx="3" fill="#E6E1D7" opacity="1.00"><title>2026-09-27: 0 events</title></rect><rect x="781.2" y="140" width="22" height="22" rx="3" fill="#476556" opacity="0.73"><title>2026-09-28: 1 events</title></rect><rect x="808.8" y="140" width="22" height="22" rx="3" fill="#476556" opacity="0.73"><title>2026-09-29: 1 events</title></rect><rect x="836.4" y="140" width="22" height="22" rx="3" fill="#E0A526" opacity="1.00"><title>2026-09-30: 2 events</title></rect>
<text x="36" y="196" font-family="Georgia, 'Times New Roman', serif" font-size="17" fill="#476556">Languages across my repos</text>
<text x="36" y="224" font-family="ui-monospace, SFMono-Regular, Menlo, Consolas, monospace" font-size="12.5" fill="#1C1F1D">TypeScript</text><rect x="200" y="212" width="600" height="14" rx="3" fill="#E6E1D7"/><rect x="200" y="212" width="395.6" height="14" rx="3" fill="#476556"/><text x="864" y="224" text-anchor="end" font-family="ui-monospace, SFMono-Regular, Menlo, Consolas, monospace" font-size="12.5" fill="#77736A">66%</text><text x="36" y="252" font-family="ui-monospace, SFMono-Regular, Menlo, Consolas, monospace" font-size="12.5" fill="#1C1F1D">Python</text><rect x="200" y="240" width="600" height="14" rx="3" fill="#E6E1D7"/><rect x="200" y="240" width="87.4" height="14" rx="3" fill="#476556"/><text x="864" y="252" text-anchor="end" font-family="ui-monospace, SFMono-Regular, Menlo, Consolas, monospace" font-size="12.5" fill="#77736A">15%</text><text x="36" y="280" font-family="ui-monospace, SFMono-Regular, Menlo, Consolas, monospace" font-size="12.5" fill="#1C1F1D">Jupyter Notebook</text><rect x="200" y="268" width="600" height="14" rx="3" fill="#E6E1D7"/><rect x="200" y="268" width="35.9" height="14" rx="3" fill="#476556"/><text x="864" y="280" text-anchor="end" font-family="ui-monospace, SFMono-Regular, Menlo, Consolas, monospace" font-size="12.5" fill="#77736A">6%</text><text x="36" y="308" font-family="ui-monospace, SFMono-Regular, Menlo, Consolas, monospace" font-size="12.5" fill="#1C1F1D">JavaScript</text><rect x="200" y="296" width="600" height="14" rx="3" fill="#E6E1D7"/><rect x="200" y="296" width="27.2" height="14" rx="3" fill="#476556"/><text x="864" y="308" text-anchor="end" font-family="ui-monospace, SFMono-Regular, Menlo, Consolas, monospace" font-size="12.5" fill="#77736A">5%</text><text x="36" y="336" font-family="ui-monospace, SFMono-Regular, Menlo, Consolas, monospace" font-size="12.5" fill="#1C1F1D">CSS</text><rect x="200" y="324" width="600" height="14" rx="3" fill="#E6E1D7"/><rect x="200" y="324" width="22.0" height="14" rx="3" fill="#476556"/><text x="864" y="336" text-anchor="end" font-family="ui-monospace, SFMono-Regular, Menlo, Consolas, monospace" font-size="12.5" fill="#77736A">4%</text>
<text x="36" y="370" font-family="ui-monospace, SFMono-Regular, Menlo, Consolas, monospace" font-size="11" fill="#77736A">public events only · generated by scripts/activity.py</text>
</svg>